<mxfile host="app.diagrams.net" agent="Mozilla/5.0 (Windows NT 10.0; Win64; x64) AppleWebKit/537.36 (KHTML, like Gecko) Chrome/131.0.0.0 Safari/537.36" version="24.9.3">
  <diagram name="第 1 页" id="_vfEqkuIPtF0k-6MjBZb">
    <mxGraphModel dx="893" dy="487" grid="1" gridSize="10" guides="1" tooltips="1" connect="1" arrows="1" fold="1" page="1" pageScale="1" pageWidth="827" pageHeight="1169" math="0" shadow="0">
      <root>
        <mxCell id="0" />
        <mxCell id="1" parent="0" />
        <mxCell id="2-OeauLspyQQJwICCulJ-5" style="edgeStyle=orthogonalEdgeStyle;rounded=0;orthogonalLoop=1;jettySize=auto;html=1;exitX=1;exitY=0;exitDx=0;exitDy=0;exitPerimeter=0;endArrow=none;endFill=0;" edge="1" parent="1" source="2-OeauLspyQQJwICCulJ-1">
          <mxGeometry relative="1" as="geometry">
            <mxPoint x="420.20000000000005" y="91" as="targetPoint" />
          </mxGeometry>
        </mxCell>
        <mxCell id="2-OeauLspyQQJwICCulJ-1" value="" style="verticalLabelPosition=bottom;shadow=0;dashed=0;align=center;html=1;verticalAlign=top;shape=mxgraph.electrical.transistors.pmos;pointerEvents=1;" vertex="1" parent="1">
          <mxGeometry x="360" y="101" width="60" height="100" as="geometry" />
        </mxCell>
        <mxCell id="2-OeauLspyQQJwICCulJ-2" value="" style="endArrow=none;html=1;rounded=0;" edge="1" parent="1">
          <mxGeometry width="50" height="50" relative="1" as="geometry">
            <mxPoint x="389" y="61" as="sourcePoint" />
            <mxPoint x="449" y="61" as="targetPoint" />
          </mxGeometry>
        </mxCell>
        <mxCell id="2-OeauLspyQQJwICCulJ-3" value="" style="endArrow=none;html=1;rounded=0;" edge="1" parent="1">
          <mxGeometry width="50" height="50" relative="1" as="geometry">
            <mxPoint x="140" y="90" as="sourcePoint" />
            <mxPoint x="693" y="90" as="targetPoint" />
            <Array as="points">
              <mxPoint x="420" y="90" />
            </Array>
          </mxGeometry>
        </mxCell>
        <mxCell id="2-OeauLspyQQJwICCulJ-4" value="" style="endArrow=none;html=1;rounded=0;" edge="1" parent="1" source="2-OeauLspyQQJwICCulJ-11">
          <mxGeometry width="50" height="50" relative="1" as="geometry">
            <mxPoint x="420" y="91" as="sourcePoint" />
            <mxPoint x="420" y="61" as="targetPoint" />
          </mxGeometry>
        </mxCell>
        <mxCell id="2-OeauLspyQQJwICCulJ-6" value="" style="verticalLabelPosition=bottom;shadow=0;dashed=0;align=center;html=1;verticalAlign=top;shape=mxgraph.electrical.transistors.pmos;pointerEvents=1;" vertex="1" parent="1">
          <mxGeometry x="80" y="101" width="60" height="100" as="geometry" />
        </mxCell>
        <mxCell id="2-OeauLspyQQJwICCulJ-10" value="" style="endArrow=none;html=1;rounded=0;" edge="1" parent="1" target="2-OeauLspyQQJwICCulJ-11">
          <mxGeometry width="50" height="50" relative="1" as="geometry">
            <mxPoint x="420" y="91" as="sourcePoint" />
            <mxPoint x="420" y="61" as="targetPoint" />
          </mxGeometry>
        </mxCell>
        <mxCell id="2-OeauLspyQQJwICCulJ-11" value="" style="shape=waypoint;sketch=0;fillStyle=solid;size=6;pointerEvents=1;points=[];fillColor=none;resizable=0;rotatable=0;perimeter=centerPerimeter;snapToPoint=1;fontFamily=Helvetica;fontSize=11;fontColor=default;labelBackgroundColor=default;" vertex="1" parent="1">
          <mxGeometry x="410" y="81" width="20" height="20" as="geometry" />
        </mxCell>
        <mxCell id="2-OeauLspyQQJwICCulJ-16" style="edgeStyle=orthogonalEdgeStyle;shape=connector;rounded=0;orthogonalLoop=1;jettySize=auto;html=1;exitX=1;exitY=0;exitDx=0;exitDy=0;exitPerimeter=0;strokeColor=default;align=center;verticalAlign=middle;fontFamily=Helvetica;fontSize=11;fontColor=default;labelBackgroundColor=default;endArrow=none;endFill=0;entryX=1;entryY=1;entryDx=0;entryDy=0;entryPerimeter=0;" edge="1" parent="1" source="2-OeauLspyQQJwICCulJ-13" target="2-OeauLspyQQJwICCulJ-1">
          <mxGeometry relative="1" as="geometry">
            <mxPoint x="339.66666666666674" y="201.0000000000001" as="targetPoint" />
            <Array as="points">
              <mxPoint x="340" y="201" />
              <mxPoint x="420" y="201" />
            </Array>
          </mxGeometry>
        </mxCell>
        <mxCell id="2-OeauLspyQQJwICCulJ-13" value="" style="verticalLabelPosition=bottom;shadow=0;dashed=0;align=center;html=1;verticalAlign=top;shape=mxgraph.electrical.transistors.pmos;pointerEvents=1;" vertex="1" parent="1">
          <mxGeometry x="280" y="211" width="60" height="100" as="geometry" />
        </mxCell>
        <mxCell id="2-OeauLspyQQJwICCulJ-18" style="edgeStyle=orthogonalEdgeStyle;shape=connector;rounded=0;orthogonalLoop=1;jettySize=auto;html=1;exitX=1;exitY=0;exitDx=0;exitDy=0;exitPerimeter=0;strokeColor=default;align=center;verticalAlign=middle;fontFamily=Helvetica;fontSize=11;fontColor=default;labelBackgroundColor=default;endArrow=none;endFill=0;" edge="1" parent="1" source="2-OeauLspyQQJwICCulJ-17">
          <mxGeometry relative="1" as="geometry">
            <mxPoint x="420" y="201" as="targetPoint" />
            <Array as="points">
              <mxPoint x="490" y="201" />
            </Array>
          </mxGeometry>
        </mxCell>
        <mxCell id="2-OeauLspyQQJwICCulJ-17" value="" style="verticalLabelPosition=bottom;shadow=0;dashed=0;align=center;html=1;verticalAlign=top;shape=mxgraph.electrical.transistors.pmos;pointerEvents=1;flipV=0;flipH=1;" vertex="1" parent="1">
          <mxGeometry x="490" y="208.14" width="60" height="100" as="geometry" />
        </mxCell>
        <mxCell id="2-OeauLspyQQJwICCulJ-19" value="" style="verticalLabelPosition=bottom;shadow=0;dashed=0;align=center;html=1;verticalAlign=top;shape=mxgraph.electrical.transistors.pmos;pointerEvents=1;flipV=0;flipH=1;" vertex="1" parent="1">
          <mxGeometry x="340" y="310" width="60" height="100" as="geometry" />
        </mxCell>
        <mxCell id="2-OeauLspyQQJwICCulJ-30" value="" style="edgeStyle=orthogonalEdgeStyle;shape=connector;rounded=0;orthogonalLoop=1;jettySize=auto;html=1;strokeColor=default;align=center;verticalAlign=middle;fontFamily=Helvetica;fontSize=11;fontColor=default;labelBackgroundColor=default;endArrow=none;endFill=0;" edge="1" parent="1" source="2-OeauLspyQQJwICCulJ-20" target="2-OeauLspyQQJwICCulJ-19">
          <mxGeometry relative="1" as="geometry" />
        </mxCell>
        <mxCell id="2-OeauLspyQQJwICCulJ-20" value="" style="verticalLabelPosition=bottom;shadow=0;dashed=0;align=center;html=1;verticalAlign=top;shape=mxgraph.electrical.transistors.pmos;pointerEvents=1;" vertex="1" parent="1">
          <mxGeometry x="430" y="310" width="60" height="100" as="geometry" />
        </mxCell>
        <mxCell id="2-OeauLspyQQJwICCulJ-29" value="" style="edgeStyle=orthogonalEdgeStyle;shape=connector;rounded=0;orthogonalLoop=1;jettySize=auto;html=1;strokeColor=default;align=center;verticalAlign=middle;fontFamily=Helvetica;fontSize=11;fontColor=default;labelBackgroundColor=default;endArrow=none;endFill=0;" edge="1" parent="1" source="2-OeauLspyQQJwICCulJ-21" target="2-OeauLspyQQJwICCulJ-22">
          <mxGeometry relative="1" as="geometry" />
        </mxCell>
        <mxCell id="2-OeauLspyQQJwICCulJ-21" value="" style="verticalLabelPosition=bottom;shadow=0;dashed=0;align=center;html=1;verticalAlign=top;shape=mxgraph.electrical.transistors.nmos;pointerEvents=1;fontFamily=Helvetica;fontSize=11;fontColor=default;labelBackgroundColor=default;" vertex="1" parent="1">
          <mxGeometry x="430" y="450" width="60" height="100" as="geometry" />
        </mxCell>
        <mxCell id="2-OeauLspyQQJwICCulJ-22" value="" style="verticalLabelPosition=bottom;shadow=0;dashed=0;align=center;html=1;verticalAlign=top;shape=mxgraph.electrical.transistors.nmos;pointerEvents=1;fontFamily=Helvetica;fontSize=11;fontColor=default;labelBackgroundColor=default;flipH=1;" vertex="1" parent="1">
          <mxGeometry x="340" y="450" width="60" height="100" as="geometry" />
        </mxCell>
        <mxCell id="2-OeauLspyQQJwICCulJ-28" value="" style="edgeStyle=orthogonalEdgeStyle;shape=connector;rounded=0;orthogonalLoop=1;jettySize=auto;html=1;strokeColor=default;align=center;verticalAlign=middle;fontFamily=Helvetica;fontSize=11;fontColor=default;labelBackgroundColor=default;endArrow=none;endFill=0;" edge="1" parent="1" source="2-OeauLspyQQJwICCulJ-23" target="2-OeauLspyQQJwICCulJ-24">
          <mxGeometry relative="1" as="geometry" />
        </mxCell>
        <mxCell id="2-OeauLspyQQJwICCulJ-23" value="" style="verticalLabelPosition=bottom;shadow=0;dashed=0;align=center;html=1;verticalAlign=top;shape=mxgraph.electrical.transistors.nmos;pointerEvents=1;fontFamily=Helvetica;fontSize=11;fontColor=default;labelBackgroundColor=default;flipH=1;" vertex="1" parent="1">
          <mxGeometry x="340" y="564" width="60" height="100" as="geometry" />
        </mxCell>
        <mxCell id="2-OeauLspyQQJwICCulJ-24" value="" style="verticalLabelPosition=bottom;shadow=0;dashed=0;align=center;html=1;verticalAlign=top;shape=mxgraph.electrical.transistors.nmos;pointerEvents=1;fontFamily=Helvetica;fontSize=11;fontColor=default;labelBackgroundColor=default;flipH=0;" vertex="1" parent="1">
          <mxGeometry x="430" y="564" width="60" height="100" as="geometry" />
        </mxCell>
        <mxCell id="2-OeauLspyQQJwICCulJ-25" style="edgeStyle=orthogonalEdgeStyle;shape=connector;rounded=0;orthogonalLoop=1;jettySize=auto;html=1;exitX=1;exitY=1;exitDx=0;exitDy=0;exitPerimeter=0;entryX=1;entryY=0;entryDx=0;entryDy=0;entryPerimeter=0;strokeColor=default;align=center;verticalAlign=middle;fontFamily=Helvetica;fontSize=11;fontColor=default;labelBackgroundColor=default;endArrow=none;endFill=0;" edge="1" parent="1" source="2-OeauLspyQQJwICCulJ-13" target="2-OeauLspyQQJwICCulJ-19">
          <mxGeometry relative="1" as="geometry" />
        </mxCell>
        <mxCell id="2-OeauLspyQQJwICCulJ-26" style="edgeStyle=orthogonalEdgeStyle;shape=connector;rounded=0;orthogonalLoop=1;jettySize=auto;html=1;exitDx=0;exitDy=0;exitPerimeter=0;entryX=1;entryY=0;entryDx=0;entryDy=0;entryPerimeter=0;strokeColor=default;align=center;verticalAlign=middle;fontFamily=Helvetica;fontSize=11;fontColor=default;labelBackgroundColor=default;endArrow=none;endFill=0;" edge="1" parent="1" source="2-OeauLspyQQJwICCulJ-56" target="2-OeauLspyQQJwICCulJ-22">
          <mxGeometry relative="1" as="geometry" />
        </mxCell>
        <mxCell id="2-OeauLspyQQJwICCulJ-27" style="edgeStyle=orthogonalEdgeStyle;shape=connector;rounded=0;orthogonalLoop=1;jettySize=auto;html=1;exitX=1;exitY=1;exitDx=0;exitDy=0;exitPerimeter=0;entryX=1;entryY=0;entryDx=0;entryDy=0;entryPerimeter=0;strokeColor=default;align=center;verticalAlign=middle;fontFamily=Helvetica;fontSize=11;fontColor=default;labelBackgroundColor=default;endArrow=none;endFill=0;" edge="1" parent="1" source="2-OeauLspyQQJwICCulJ-22" target="2-OeauLspyQQJwICCulJ-23">
          <mxGeometry relative="1" as="geometry" />
        </mxCell>
        <mxCell id="2-OeauLspyQQJwICCulJ-32" style="edgeStyle=orthogonalEdgeStyle;shape=connector;rounded=0;orthogonalLoop=1;jettySize=auto;html=1;exitX=1;exitY=0;exitDx=0;exitDy=0;exitPerimeter=0;entryX=1;entryY=1;entryDx=0;entryDy=0;entryPerimeter=0;strokeColor=default;align=center;verticalAlign=middle;fontFamily=Helvetica;fontSize=11;fontColor=default;labelBackgroundColor=default;endArrow=none;endFill=0;" edge="1" parent="1" source="2-OeauLspyQQJwICCulJ-20" target="2-OeauLspyQQJwICCulJ-17">
          <mxGeometry relative="1" as="geometry" />
        </mxCell>
        <mxCell id="2-OeauLspyQQJwICCulJ-33" style="edgeStyle=orthogonalEdgeStyle;shape=connector;rounded=0;orthogonalLoop=1;jettySize=auto;html=1;exitDx=0;exitDy=0;exitPerimeter=0;entryX=1;entryY=0;entryDx=0;entryDy=0;entryPerimeter=0;strokeColor=default;align=center;verticalAlign=middle;fontFamily=Helvetica;fontSize=11;fontColor=default;labelBackgroundColor=default;endArrow=none;endFill=0;" edge="1" parent="1" source="2-OeauLspyQQJwICCulJ-49" target="2-OeauLspyQQJwICCulJ-21">
          <mxGeometry relative="1" as="geometry" />
        </mxCell>
        <mxCell id="2-OeauLspyQQJwICCulJ-34" style="edgeStyle=orthogonalEdgeStyle;shape=connector;rounded=0;orthogonalLoop=1;jettySize=auto;html=1;exitX=1;exitY=1;exitDx=0;exitDy=0;exitPerimeter=0;entryX=1;entryY=0;entryDx=0;entryDy=0;entryPerimeter=0;strokeColor=default;align=center;verticalAlign=middle;fontFamily=Helvetica;fontSize=11;fontColor=default;labelBackgroundColor=default;endArrow=none;endFill=0;" edge="1" parent="1" source="2-OeauLspyQQJwICCulJ-21" target="2-OeauLspyQQJwICCulJ-24">
          <mxGeometry relative="1" as="geometry" />
        </mxCell>
        <mxCell id="2-OeauLspyQQJwICCulJ-35" value="" style="endArrow=none;html=1;rounded=0;" edge="1" parent="1">
          <mxGeometry width="50" height="50" relative="1" as="geometry">
            <mxPoint x="490" y="659" as="sourcePoint" />
            <mxPoint x="720" y="659" as="targetPoint" />
            <Array as="points">
              <mxPoint x="370" y="659" />
            </Array>
          </mxGeometry>
        </mxCell>
        <mxCell id="2-OeauLspyQQJwICCulJ-37" value="" style="endArrow=none;html=1;rounded=0;exitX=1;exitY=1;exitDx=0;exitDy=0;exitPerimeter=0;" edge="1" parent="1" source="2-OeauLspyQQJwICCulJ-47" target="2-OeauLspyQQJwICCulJ-36">
          <mxGeometry width="50" height="50" relative="1" as="geometry">
            <mxPoint x="40" y="659" as="sourcePoint" />
            <mxPoint x="720" y="661" as="targetPoint" />
            <Array as="points" />
          </mxGeometry>
        </mxCell>
        <mxCell id="2-OeauLspyQQJwICCulJ-36" value="" style="shape=waypoint;sketch=0;fillStyle=solid;size=6;pointerEvents=1;points=[];fillColor=none;resizable=0;rotatable=0;perimeter=centerPerimeter;snapToPoint=1;fontFamily=Helvetica;fontSize=11;fontColor=default;labelBackgroundColor=default;" vertex="1" parent="1">
          <mxGeometry x="330" y="649" width="20" height="20" as="geometry" />
        </mxCell>
        <mxCell id="2-OeauLspyQQJwICCulJ-39" value="" style="endArrow=none;html=1;rounded=0;" edge="1" parent="1" source="2-OeauLspyQQJwICCulJ-36" target="2-OeauLspyQQJwICCulJ-38">
          <mxGeometry width="50" height="50" relative="1" as="geometry">
            <mxPoint x="340" y="659" as="sourcePoint" />
            <mxPoint x="720" y="661" as="targetPoint" />
            <Array as="points" />
          </mxGeometry>
        </mxCell>
        <mxCell id="2-OeauLspyQQJwICCulJ-38" value="" style="shape=waypoint;sketch=0;fillStyle=solid;size=6;pointerEvents=1;points=[];fillColor=none;resizable=0;rotatable=0;perimeter=centerPerimeter;snapToPoint=1;fontFamily=Helvetica;fontSize=11;fontColor=default;labelBackgroundColor=default;" vertex="1" parent="1">
          <mxGeometry x="480" y="649" width="20" height="20" as="geometry" />
        </mxCell>
        <mxCell id="2-OeauLspyQQJwICCulJ-45" style="edgeStyle=orthogonalEdgeStyle;shape=connector;rounded=0;orthogonalLoop=1;jettySize=auto;html=1;exitX=1;exitY=0;exitDx=0;exitDy=0;exitPerimeter=0;entryX=0.271;entryY=0.272;entryDx=0;entryDy=0;entryPerimeter=0;strokeColor=default;align=center;verticalAlign=middle;fontFamily=Helvetica;fontSize=11;fontColor=default;labelBackgroundColor=default;endArrow=none;endFill=0;" edge="1" parent="1" source="2-OeauLspyQQJwICCulJ-6">
          <mxGeometry relative="1" as="geometry">
            <mxPoint x="140" y="91" as="targetPoint" />
          </mxGeometry>
        </mxCell>
        <mxCell id="2-OeauLspyQQJwICCulJ-78" style="edgeStyle=orthogonalEdgeStyle;shape=connector;rounded=0;orthogonalLoop=1;jettySize=auto;html=1;exitX=0;exitY=0.5;exitDx=0;exitDy=0;exitPerimeter=0;strokeColor=default;align=center;verticalAlign=middle;fontFamily=Helvetica;fontSize=11;fontColor=default;labelBackgroundColor=default;endArrow=none;endFill=0;" edge="1" parent="1" source="2-OeauLspyQQJwICCulJ-47">
          <mxGeometry relative="1" as="geometry">
            <mxPoint x="310" y="425" as="targetPoint" />
          </mxGeometry>
        </mxCell>
        <mxCell id="2-OeauLspyQQJwICCulJ-47" value="" style="verticalLabelPosition=bottom;shadow=0;dashed=0;align=center;html=1;verticalAlign=top;shape=mxgraph.electrical.transistors.nmos;pointerEvents=1;fontFamily=Helvetica;fontSize=11;fontColor=default;labelBackgroundColor=default;flipH=1;" vertex="1" parent="1">
          <mxGeometry x="140" y="564" width="60" height="100" as="geometry" />
        </mxCell>
        <mxCell id="2-OeauLspyQQJwICCulJ-48" value="" style="shape=waypoint;sketch=0;fillStyle=solid;size=6;pointerEvents=1;points=[];fillColor=none;resizable=0;rotatable=0;perimeter=centerPerimeter;snapToPoint=1;fontFamily=Helvetica;fontSize=11;fontColor=default;labelBackgroundColor=default;" vertex="1" parent="1">
          <mxGeometry x="683" y="415.01" width="20" height="20" as="geometry" />
        </mxCell>
        <mxCell id="2-OeauLspyQQJwICCulJ-52" style="edgeStyle=orthogonalEdgeStyle;shape=connector;rounded=0;orthogonalLoop=1;jettySize=auto;html=1;exitDx=0;exitDy=0;exitPerimeter=0;strokeColor=default;align=center;verticalAlign=middle;fontFamily=Helvetica;fontSize=11;fontColor=default;labelBackgroundColor=default;endArrow=none;endFill=0;" edge="1" parent="1" source="2-OeauLspyQQJwICCulJ-80">
          <mxGeometry relative="1" as="geometry">
            <mxPoint x="340" y="425.1034482758621" as="targetPoint" />
          </mxGeometry>
        </mxCell>
        <mxCell id="2-OeauLspyQQJwICCulJ-50" value="" style="pointerEvents=1;verticalLabelPosition=bottom;shadow=0;dashed=0;align=center;html=1;verticalAlign=top;shape=mxgraph.electrical.resistors.resistor_2;fontFamily=Helvetica;fontSize=11;fontColor=default;labelBackgroundColor=default;" vertex="1" parent="1">
          <mxGeometry x="229" y="420" width="60" height="10" as="geometry" />
        </mxCell>
        <mxCell id="2-OeauLspyQQJwICCulJ-55" style="edgeStyle=orthogonalEdgeStyle;shape=connector;rounded=0;orthogonalLoop=1;jettySize=auto;html=1;exitX=0;exitY=0.5;exitDx=0;exitDy=0;exitPerimeter=0;strokeColor=default;align=center;verticalAlign=middle;fontFamily=Helvetica;fontSize=11;fontColor=default;labelBackgroundColor=default;endArrow=none;endFill=0;" edge="1" parent="1" source="2-OeauLspyQQJwICCulJ-53" target="2-OeauLspyQQJwICCulJ-49">
          <mxGeometry relative="1" as="geometry" />
        </mxCell>
        <mxCell id="2-OeauLspyQQJwICCulJ-53" value="" style="pointerEvents=1;verticalLabelPosition=bottom;shadow=0;dashed=0;align=center;html=1;verticalAlign=top;shape=mxgraph.electrical.resistors.resistor_2;fontFamily=Helvetica;fontSize=11;fontColor=default;labelBackgroundColor=default;" vertex="1" parent="1">
          <mxGeometry x="540" y="420" width="50" height="10" as="geometry" />
        </mxCell>
        <mxCell id="2-OeauLspyQQJwICCulJ-54" value="" style="edgeStyle=orthogonalEdgeStyle;shape=connector;rounded=0;orthogonalLoop=1;jettySize=auto;html=1;exitX=1;exitY=1;exitDx=0;exitDy=0;exitPerimeter=0;entryDx=0;entryDy=0;entryPerimeter=0;strokeColor=default;align=center;verticalAlign=middle;fontFamily=Helvetica;fontSize=11;fontColor=default;labelBackgroundColor=default;endArrow=none;endFill=0;" edge="1" parent="1" source="2-OeauLspyQQJwICCulJ-20" target="2-OeauLspyQQJwICCulJ-49">
          <mxGeometry relative="1" as="geometry">
            <mxPoint x="490" y="407" as="sourcePoint" />
            <mxPoint x="490" y="453" as="targetPoint" />
          </mxGeometry>
        </mxCell>
        <mxCell id="2-OeauLspyQQJwICCulJ-49" value="" style="shape=waypoint;sketch=0;fillStyle=solid;size=6;pointerEvents=1;points=[];fillColor=none;resizable=0;rotatable=0;perimeter=centerPerimeter;snapToPoint=1;fontFamily=Helvetica;fontSize=11;fontColor=default;labelBackgroundColor=default;" vertex="1" parent="1">
          <mxGeometry x="480" y="415" width="20" height="20" as="geometry" />
        </mxCell>
        <mxCell id="2-OeauLspyQQJwICCulJ-57" value="" style="edgeStyle=orthogonalEdgeStyle;shape=connector;rounded=0;orthogonalLoop=1;jettySize=auto;html=1;exitX=1;exitY=1;exitDx=0;exitDy=0;exitPerimeter=0;entryDx=0;entryDy=0;entryPerimeter=0;strokeColor=default;align=center;verticalAlign=middle;fontFamily=Helvetica;fontSize=11;fontColor=default;labelBackgroundColor=default;endArrow=none;endFill=0;" edge="1" parent="1" source="2-OeauLspyQQJwICCulJ-19" target="2-OeauLspyQQJwICCulJ-56">
          <mxGeometry relative="1" as="geometry">
            <mxPoint x="340" y="407" as="sourcePoint" />
            <mxPoint x="340" y="453" as="targetPoint" />
          </mxGeometry>
        </mxCell>
        <mxCell id="2-OeauLspyQQJwICCulJ-56" value="" style="shape=waypoint;sketch=0;fillStyle=solid;size=6;pointerEvents=1;points=[];fillColor=none;resizable=0;rotatable=0;perimeter=centerPerimeter;snapToPoint=1;fontFamily=Helvetica;fontSize=11;fontColor=default;labelBackgroundColor=default;" vertex="1" parent="1">
          <mxGeometry x="330" y="415" width="20" height="20" as="geometry" />
        </mxCell>
        <mxCell id="2-OeauLspyQQJwICCulJ-63" style="edgeStyle=orthogonalEdgeStyle;shape=connector;rounded=0;orthogonalLoop=1;jettySize=auto;html=1;exitX=0;exitY=0.5;exitDx=0;exitDy=0;exitPerimeter=0;strokeColor=default;align=center;verticalAlign=middle;fontFamily=Helvetica;fontSize=11;fontColor=default;labelBackgroundColor=default;endArrow=none;endFill=0;" edge="1" parent="1" source="2-OeauLspyQQJwICCulJ-58">
          <mxGeometry relative="1" as="geometry">
            <mxPoint x="140" y="425.1034482758621" as="targetPoint" />
          </mxGeometry>
        </mxCell>
        <mxCell id="2-OeauLspyQQJwICCulJ-58" value="" style="pointerEvents=1;verticalLabelPosition=bottom;shadow=0;dashed=0;align=center;html=1;verticalAlign=top;shape=mxgraph.electrical.capacitors.capacitor_1;fontFamily=Helvetica;fontSize=11;fontColor=default;labelBackgroundColor=default;" vertex="1" parent="1">
          <mxGeometry x="179" y="416.88" width="40" height="16.25" as="geometry" />
        </mxCell>
        <mxCell id="2-OeauLspyQQJwICCulJ-59" style="edgeStyle=orthogonalEdgeStyle;shape=connector;rounded=0;orthogonalLoop=1;jettySize=auto;html=1;exitX=1;exitY=0.5;exitDx=0;exitDy=0;exitPerimeter=0;entryX=0;entryY=0.5;entryDx=0;entryDy=0;entryPerimeter=0;strokeColor=default;align=center;verticalAlign=middle;fontFamily=Helvetica;fontSize=11;fontColor=default;labelBackgroundColor=default;endArrow=none;endFill=0;" edge="1" parent="1" source="2-OeauLspyQQJwICCulJ-58" target="2-OeauLspyQQJwICCulJ-50">
          <mxGeometry relative="1" as="geometry" />
        </mxCell>
        <mxCell id="2-OeauLspyQQJwICCulJ-74" style="edgeStyle=orthogonalEdgeStyle;shape=connector;rounded=0;orthogonalLoop=1;jettySize=auto;html=1;exitX=1;exitY=0.5;exitDx=0;exitDy=0;exitPerimeter=0;strokeColor=default;align=center;verticalAlign=middle;fontFamily=Helvetica;fontSize=11;fontColor=default;labelBackgroundColor=default;endArrow=none;endFill=0;" edge="1" parent="1" source="2-OeauLspyQQJwICCulJ-60">
          <mxGeometry relative="1" as="geometry">
            <mxPoint x="690.0000000000002" y="425.1034482758621" as="targetPoint" />
          </mxGeometry>
        </mxCell>
        <mxCell id="2-OeauLspyQQJwICCulJ-60" value="" style="pointerEvents=1;verticalLabelPosition=bottom;shadow=0;dashed=0;align=center;html=1;verticalAlign=top;shape=mxgraph.electrical.capacitors.capacitor_1;fontFamily=Helvetica;fontSize=11;fontColor=default;labelBackgroundColor=default;" vertex="1" parent="1">
          <mxGeometry x="616" y="417.5" width="40" height="15" as="geometry" />
        </mxCell>
        <mxCell id="2-OeauLspyQQJwICCulJ-61" style="edgeStyle=orthogonalEdgeStyle;shape=connector;rounded=0;orthogonalLoop=1;jettySize=auto;html=1;exitX=0;exitY=0.5;exitDx=0;exitDy=0;exitPerimeter=0;entryX=1;entryY=0.5;entryDx=0;entryDy=0;entryPerimeter=0;strokeColor=default;align=center;verticalAlign=middle;fontFamily=Helvetica;fontSize=11;fontColor=default;labelBackgroundColor=default;endArrow=none;endFill=0;" edge="1" parent="1" source="2-OeauLspyQQJwICCulJ-60" target="2-OeauLspyQQJwICCulJ-53">
          <mxGeometry relative="1" as="geometry" />
        </mxCell>
        <mxCell id="2-OeauLspyQQJwICCulJ-62" style="edgeStyle=orthogonalEdgeStyle;shape=connector;rounded=0;orthogonalLoop=1;jettySize=auto;html=1;exitDx=0;exitDy=0;exitPerimeter=0;entryX=1;entryY=0;entryDx=0;entryDy=0;entryPerimeter=0;strokeColor=default;align=center;verticalAlign=middle;fontFamily=Helvetica;fontSize=11;fontColor=default;labelBackgroundColor=default;endArrow=none;endFill=0;" edge="1" parent="1" source="2-OeauLspyQQJwICCulJ-76" target="2-OeauLspyQQJwICCulJ-47">
          <mxGeometry relative="1" as="geometry" />
        </mxCell>
        <mxCell id="2-OeauLspyQQJwICCulJ-79" style="edgeStyle=orthogonalEdgeStyle;shape=connector;rounded=0;orthogonalLoop=1;jettySize=auto;html=1;exitX=0;exitY=0.5;exitDx=0;exitDy=0;exitPerimeter=0;strokeColor=default;align=center;verticalAlign=middle;fontFamily=Helvetica;fontSize=11;fontColor=default;labelBackgroundColor=default;endArrow=none;endFill=0;" edge="1" parent="1" source="2-OeauLspyQQJwICCulJ-64">
          <mxGeometry relative="1" as="geometry">
            <mxPoint x="520" y="425" as="targetPoint" />
          </mxGeometry>
        </mxCell>
        <mxCell id="2-OeauLspyQQJwICCulJ-64" value="" style="verticalLabelPosition=bottom;shadow=0;dashed=0;align=center;html=1;verticalAlign=top;shape=mxgraph.electrical.transistors.nmos;pointerEvents=1;fontFamily=Helvetica;fontSize=11;fontColor=default;labelBackgroundColor=default;flipH=0;" vertex="1" parent="1">
          <mxGeometry x="633" y="564" width="60" height="100" as="geometry" />
        </mxCell>
        <mxCell id="2-OeauLspyQQJwICCulJ-72" style="edgeStyle=orthogonalEdgeStyle;shape=connector;rounded=0;orthogonalLoop=1;jettySize=auto;html=1;exitX=1;exitY=0;exitDx=0;exitDy=0;exitPerimeter=0;strokeColor=default;align=center;verticalAlign=middle;fontFamily=Helvetica;fontSize=11;fontColor=default;labelBackgroundColor=default;endArrow=none;endFill=0;" edge="1" parent="1" source="2-OeauLspyQQJwICCulJ-65">
          <mxGeometry relative="1" as="geometry">
            <mxPoint x="693" y="90" as="targetPoint" />
          </mxGeometry>
        </mxCell>
        <mxCell id="2-OeauLspyQQJwICCulJ-65" value="" style="verticalLabelPosition=bottom;shadow=0;dashed=0;align=center;html=1;verticalAlign=top;shape=mxgraph.electrical.transistors.pmos;pointerEvents=1;flipV=0;flipH=0;" vertex="1" parent="1">
          <mxGeometry x="633" y="101" width="60" height="100" as="geometry" />
        </mxCell>
        <mxCell id="2-OeauLspyQQJwICCulJ-66" style="edgeStyle=orthogonalEdgeStyle;shape=connector;rounded=0;orthogonalLoop=1;jettySize=auto;html=1;exitX=1;exitY=1;exitDx=0;exitDy=0;exitPerimeter=0;entryX=1;entryY=0;entryDx=0;entryDy=0;entryPerimeter=0;strokeColor=default;align=center;verticalAlign=middle;fontFamily=Helvetica;fontSize=11;fontColor=default;labelBackgroundColor=default;endArrow=none;endFill=0;" edge="1" parent="1" source="2-OeauLspyQQJwICCulJ-65" target="2-OeauLspyQQJwICCulJ-64">
          <mxGeometry relative="1" as="geometry" />
        </mxCell>
        <mxCell id="2-OeauLspyQQJwICCulJ-70" value="" style="endArrow=none;html=1;rounded=0;" edge="1" parent="1">
          <mxGeometry width="50" height="50" relative="1" as="geometry">
            <mxPoint x="30" y="151" as="sourcePoint" />
            <mxPoint x="660" y="151" as="targetPoint" />
            <Array as="points">
              <mxPoint x="310" y="150.66" />
            </Array>
          </mxGeometry>
        </mxCell>
        <mxCell id="2-OeauLspyQQJwICCulJ-77" value="" style="edgeStyle=orthogonalEdgeStyle;shape=connector;rounded=0;orthogonalLoop=1;jettySize=auto;html=1;exitX=1;exitY=1;exitDx=0;exitDy=0;exitPerimeter=0;entryDx=0;entryDy=0;entryPerimeter=0;strokeColor=default;align=center;verticalAlign=middle;fontFamily=Helvetica;fontSize=11;fontColor=default;labelBackgroundColor=default;endArrow=none;endFill=0;" edge="1" parent="1" source="2-OeauLspyQQJwICCulJ-6" target="2-OeauLspyQQJwICCulJ-76">
          <mxGeometry relative="1" as="geometry">
            <mxPoint x="140" y="198" as="sourcePoint" />
            <mxPoint x="140" y="567" as="targetPoint" />
          </mxGeometry>
        </mxCell>
        <mxCell id="2-OeauLspyQQJwICCulJ-76" value="" style="shape=waypoint;sketch=0;fillStyle=solid;size=6;pointerEvents=1;points=[];fillColor=none;resizable=0;rotatable=0;perimeter=centerPerimeter;snapToPoint=1;fontFamily=Helvetica;fontSize=11;fontColor=default;labelBackgroundColor=default;" vertex="1" parent="1">
          <mxGeometry x="130" y="415.01" width="20" height="20" as="geometry" />
        </mxCell>
        <mxCell id="2-OeauLspyQQJwICCulJ-81" value="" style="edgeStyle=orthogonalEdgeStyle;shape=connector;rounded=0;orthogonalLoop=1;jettySize=auto;html=1;exitX=1;exitY=0.5;exitDx=0;exitDy=0;exitPerimeter=0;strokeColor=default;align=center;verticalAlign=middle;fontFamily=Helvetica;fontSize=11;fontColor=default;labelBackgroundColor=default;endArrow=none;endFill=0;" edge="1" parent="1" source="2-OeauLspyQQJwICCulJ-50" target="2-OeauLspyQQJwICCulJ-80">
          <mxGeometry relative="1" as="geometry">
            <mxPoint x="340" y="425.1034482758621" as="targetPoint" />
            <mxPoint x="289" y="425" as="sourcePoint" />
          </mxGeometry>
        </mxCell>
        <mxCell id="2-OeauLspyQQJwICCulJ-80" value="" style="shape=waypoint;sketch=0;fillStyle=solid;size=6;pointerEvents=1;points=[];fillColor=none;resizable=0;rotatable=0;perimeter=centerPerimeter;snapToPoint=1;fontFamily=Helvetica;fontSize=11;fontColor=default;labelBackgroundColor=default;" vertex="1" parent="1">
          <mxGeometry x="300" y="415.01" width="20" height="20" as="geometry" />
        </mxCell>
        <mxCell id="2-OeauLspyQQJwICCulJ-82" value="" style="shape=waypoint;sketch=0;fillStyle=solid;size=6;pointerEvents=1;points=[];fillColor=none;resizable=0;rotatable=0;perimeter=centerPerimeter;snapToPoint=1;fontFamily=Helvetica;fontSize=11;fontColor=default;labelBackgroundColor=default;" vertex="1" parent="1">
          <mxGeometry x="510" y="415" width="20" height="20" as="geometry" />
        </mxCell>
      </root>
    </mxGraphModel>
  </diagram>
</mxfile>
